 <svg  version="1.0" xmlns="http://www.w3.org/2000/svg"  width="276.000000pt" height="146.000000pt" viewBox="0 0 276.000000 146.000000"  preserveAspectRatio="xMidYMid meet">  <g transform="translate(0.000000,146.000000) scale(0.100000,-0.100000)" fill="#0091ff" stroke="none"> <path d="M1295 1001 c-27 -5 -68 -13 -89 -19 -22 -6 -50 -9 -63 -5 -16 4 -31 -1 -46 -15 -21 -19 -191 -112 -205 -112 -4 0 -14 15 -22 33 -26 56 -49 43 -100 -54 -25 -47 -53 -97 -62 -110 -24 -31 -23 -62 2 -84 19 -17 23 -17 78 -1 32 9 81 16 108 16 67 0 92 8 100 33 5 16 -1 27 -22 44 l-28 22 54 24 c93 41 211 75 301 87 105 14 215 1 298 -37 l56 -24 -30 -25 c-130 -108 -168 -171 -173 -286 -5 -96 16 -147 89 -212 129 -116 324 -62 402 113 40 89 24 248 -35 347 -11 19 -17 38 -14 43 7 10 115 45 239 77 70 18 88 33 68 58 -19 23 -148 8 -310 -35 l-74 -20 -70 47 c-39 26 -103 57 -145 71 -83 26 -224 37 -307 24z m260 -46 c80 -21 160 -60 207 -103 l38 -35 71 23 c110 34 329 75 329 61 0 -4 -41 -15 -91 -25 -50 -9 -135 -31 -189 -48 l-98 -31 28 -36 c49 -61 73 -128 78 -219 5 -100 -12 -155 -70 -218 -107 -116 -277 -94 -351 46 -25 48 -28 63 -24 120 2 40 13 82 27 109 29 58 106 132 170 164 l50 25 -27 20 c-121 85 -286 112 -473 76 -105 -19 -208 -57 -335 -122 l-100 -51 66 0 c73 -1 129 -10 129 -20 0 -4 -42 -8 -92 -8 -66 0 -104 -5 -132 -17 -21 -10 -42 -14 -47 -9 -5 5 13 42 40 82 27 40 55 93 61 117 7 24 17 44 21 44 15 0 10 -89 -7 -122 -16 -30 -15 -30 48 15 105 74 241 135 363 162 84 18 238 18 310 0z"/> <path d="M1677 720 c-40 -27 -86 -67 -101 -89 -75 -107 -67 -231 17 -295 86 -66 196 -36 248 66 25 49 27 163 5 227 -13 36 -80 141 -91 141 -2 0 -37 -22 -78 -50z m97 -29 c47 -52 68 -172 45 -252 -36 -117 -199 -134 -245 -24 -36 88 5 198 100 265 48 34 76 37 100 11z"/> <path d="M2042 508 c-1 -32 -11 -81 -22 -110 -25 -68 -19 -73 9 -8 17 39 21 66 18 113 l-3 62 -2 -57z"/> <path d="M1991 476 c-7 -44 -16 -86 -19 -94 -3 -10 -1 -13 6 -8 15 9 35 103 30 146 -2 27 -6 18 -17 -44z"/> </g> </svg> 